<svg xmlns="http://www.w3.org/2000/svg" width="50" height="50" fill="#FFFFFF" viewBox="0 0 24 24">
  <path d="M20.52 3.48A11.84 11.84 0 0012 0C5.37 0 .08 5.29.08 11.9c0 2.1.55 4.16 1.6 5.97L0 24l6.33-1.65a11.92 11.92 0 005.68 1.45h.01c6.63 0 11.92-5.29 11.92-11.9a11.85 11.85 0 00-3.42-8.42zM12 21.5c-1.84 0-3.64-.49-5.21-1.43l-.37-.22-3.75.98 1-3.65-.24-.38a9.9 9.9 0 01-1.53-5.31c0-5.45 4.44-9.88 9.88-9.88a9.87 9.87 0 019.88 9.88c0 5.44-4.44 9.87-9.88 9.87zm5.41-7.39c-.3-.15-1.77-.87-2.05-.97-.28-.1-.49-.15-.7.15s-.8.97-.98 1.17c-.18.2-.36.22-.66.07-.3-.15-1.26-.46-2.4-1.48-.89-.79-1.49-1.77-1.67-2.07-.18-.3-.02-.46.13-.61.13-.13.3-.36.45-.54.15-.18.2-.3.3-.5.1-.2.05-.37-.02-.52-.07-.15-.7-1.69-.96-2.3-.25-.6-.5-.52-.7-.53h-.6c-.2 0-.52.07-.8.37s-1.05 1.03-1.05 2.52 1.07 2.93 1.22 3.13c.15.2 2.1 3.21 5.08 4.5.71.31 1.26.5 1.69.64.71.23 1.35.2 1.86.12.57-.08 1.77-.72 2.02-1.41.25-.69.25-1.28.17-1.41-.07-.13-.27-.2-.57-.35z"/>
</svg>
